<svg width="24" height="24" viewBox="0 0 24 24" fill="none" xmlns="http://www.w3.org/2000/svg">
<path d="M20.4201 4.57996C19.9184 4.07653 19.3223 3.67709 18.6659 3.40455C18.0095 3.132 17.3058 2.9917 16.5951 2.9917C15.8844 2.9917 15.1806 3.132 14.5243 3.40455C13.8679 3.67709 13.2718 4.07653 12.7701 4.57996L12.0001 5.35996L11.2301 4.57996C10.7284 4.07653 10.1323 3.67709 9.47591 3.40455C8.81953 3.132 8.1158 2.9917 7.40509 2.9917C6.69437 2.9917 5.99065 3.132 5.33427 3.40455C4.67789 3.67709 4.08176 4.07653 3.58009 4.57996C1.46009 6.69996 1.33009 10.28 4.00009 13L12.0001 21L20.0001 13C22.6701 10.28 22.5401 6.69996 20.4201 4.57996Z" stroke="black" stroke-width="2" stroke-linecap="round" stroke-linejoin="round"/>
<path d="M12.0002 5.36011L8.87019 8.50011C8.47448 8.89905 8.25244 9.4382 8.25244 10.0001C8.25244 10.562 8.47448 11.1012 8.87019 11.5001C9.26913 11.8958 9.80828 12.1179 10.3702 12.1179C10.9321 12.1179 11.4712 11.8958 11.8702 11.5001L14.1302 9.29011C14.6919 8.73439 15.4501 8.42269 16.2402 8.42269C17.0303 8.42269 17.7885 8.73439 18.3502 9.29011L20.7502 11.6901" stroke="black" stroke-width="2" stroke-linecap="round" stroke-linejoin="round"/>
<path d="M18 15L16 13" stroke="black" stroke-width="2" stroke-linecap="round" stroke-linejoin="round"/>
<path d="M15 18L13 16" stroke="black" stroke-width="2" stroke-linecap="round" stroke-linejoin="round"/>
</svg>
