<svg width="45" height="45" viewBox="0 0 45 45" fill="none" xmlns="http://www.w3.org/2000/svg">
<path d="M31.875 35.625V9.375H13.125V35.625H31.875ZM31.875 1.875C32.8696 1.875 33.8234 2.27009 34.5266 2.97335C35.2299 3.67661 35.625 4.63044 35.625 5.625V39.375C35.625 40.3696 35.2299 41.3234 34.5266 42.0266C33.8234 42.7299 32.8696 43.125 31.875 43.125H13.125C12.1304 43.125 11.1766 42.7299 10.4733 42.0266C9.77009 41.3234 9.375 40.3696 9.375 39.375V5.625C9.375 3.54375 11.0437 1.875 13.125 1.875H31.875ZM16.875 13.125H28.125V16.875H16.875V13.125ZM16.875 20.625H24.375V24.375H16.875V20.625Z" fill="black"/>
</svg>
