<svg width="58" height="58" viewBox="0 0 58 58" fill="none" xmlns="http://www.w3.org/2000/svg">
<path d="M28.9724 57.4754C44.6345 57.4754 57.562 44.548 57.562 28.9135C57.562 13.279 44.6069 0.351562 28.9448 0.351562C13.3103 0.351562 0.410461 13.279 0.410461 28.9135C0.410461 44.548 13.3379 57.4754 28.9724 57.4754ZM28.9724 38.471C21.1828 38.471 15.1334 41.2609 12.2054 44.4651C8.44869 40.4046 6.156 34.9353 6.156 28.9135C6.156 16.2347 16.2936 6.06948 28.9448 6.06948C41.6236 6.06948 51.8164 16.2347 51.8441 28.9135C51.8441 34.9353 49.5514 40.4046 45.767 44.4927C42.839 41.2609 36.7896 38.471 28.9724 38.471ZM28.9724 33.9408C34.3312 33.9961 38.5023 29.4107 38.5023 23.4994C38.5023 17.9196 34.3036 13.2514 28.9724 13.2514C23.6688 13.2514 19.4425 17.9196 19.4702 23.4994C19.4978 29.4107 23.6412 33.9132 28.9724 33.9408Z" fill="#1C1C1E"/>
</svg>
